<?xml version="1.0" encoding="UTF-8" standalone="no"?>
<!DOCTYPE svg PUBLIC "-//W3C//DTD SVG 1.1//EN"
 "http://www.w3.org/Graphics/SVG/1.1/DTD/svg11.dtd">
<!-- Generated by graphviz version 2.36.0 (20140111.2315)
 -->
<!-- Title: G Pages: 1 -->
<svg width="490pt" height="348pt"
 viewBox="0.00 0.00 490.00 348.00" xmlns="http://www.w3.org/2000/svg" xmlns:xlink="http://www.w3.org/1999/xlink">
<g id="graph0" class="graph" transform="scale(1 1) rotate(0) translate(4 344)">
<title>G</title>
<polygon fill="white" stroke="none" points="-4,4 -4,-344 486,-344 486,4 -4,4"/>
<g id="clust1" class="cluster"><title>cluster_Global</title>
<path fill="none" stroke="gray" d="M328,-8C328,-8 462,-8 462,-8 468,-8 474,-14 474,-20 474,-20 474,-320 474,-320 474,-326 468,-332 462,-332 462,-332 328,-332 328,-332 322,-332 316,-326 316,-320 316,-320 316,-20 316,-20 316,-14 322,-8 328,-8"/>
<text text-anchor="middle" x="395" y="-319.2" font-family="Times,serif" font-size="11.00" fill="gray">Global</text>
</g>
<g id="clust2" class="cluster"><title>cluster_\yrmcds</title>
<path fill="none" stroke="gray" d="M336,-16C336,-16 454,-16 454,-16 460,-16 466,-22 466,-28 466,-28 466,-292 466,-292 466,-298 460,-304 454,-304 454,-304 336,-304 336,-304 330,-304 324,-298 324,-292 324,-292 324,-28 324,-28 324,-22 330,-16 336,-16"/>
<text text-anchor="middle" x="395" y="-291.2" font-family="Times,serif" font-size="11.00" fill="gray">yrmcds</text>
</g>
<!-- \\yrmcds\\TimeoutException -->
<g id="node1" class="node"><title>\\yrmcds\\TimeoutException</title>
<polygon fill="none" stroke="black" points="457.5,-222 332.5,-222 332.5,-186 457.5,-186 457.5,-222"/>
<text text-anchor="middle" x="395" y="-201.2" font-family="Courier,monospace" font-size="11.00">TimeoutException</text>
</g>
<!-- \\RuntimeException -->
<g id="node6" class="node"><title>\\RuntimeException</title>
<ellipse fill="none" stroke="black" cx="130" cy="-231" rx="100.182" ry="18"/>
<text text-anchor="middle" x="130" y="-227.3" font-family="Times,serif" font-size="14.00" fill="gray">\RuntimeException</text>
</g>
<!-- \\yrmcds\\TimeoutException&#45;&gt;\\RuntimeException -->
<g id="edge1" class="edge"><title>\\yrmcds\\TimeoutException&#45;&gt;\\RuntimeException</title>
<path fill="none" stroke="black" d="M332.338,-210.33C301.246,-213.522 262.817,-217.467 227.893,-221.053"/>
<polygon fill="none" stroke="black" points="227.254,-217.6 217.664,-222.103 227.969,-224.563 227.254,-217.6"/>
</g>
<!-- \\yrmcds\\SessionHandler -->
<g id="node2" class="node"><title>\\yrmcds\\SessionHandler</title>
<polygon fill="none" stroke="black" points="450.5,-114 339.5,-114 339.5,-78 450.5,-78 450.5,-114"/>
<text text-anchor="middle" x="395" y="-93.2" font-family="Courier,monospace" font-size="11.00">SessionHandler</text>
</g>
<!-- \\SessionHandlerInterface -->
<g id="node7" class="node"><title>\\SessionHandlerInterface</title>
<ellipse fill="none" stroke="black" cx="130" cy="-96" rx="129.977" ry="18"/>
<text text-anchor="middle" x="130" y="-92.3" font-family="Times,serif" font-size="14.00" fill="gray">\SessionHandlerInterface</text>
</g>
<!-- \\yrmcds\\SessionHandler&#45;&gt;\\SessionHandlerInterface -->
<g id="edge2" class="edge"><title>\\yrmcds\\SessionHandler&#45;&gt;\\SessionHandlerInterface</title>
<path fill="none" stroke="black" stroke-dasharray="1,5" d="M339.187,-96C318.811,-96 294.658,-96 270.151,-96"/>
<polygon fill="none" stroke="black" points="270.01,-92.5001 260.01,-96 270.009,-99.5001 270.01,-92.5001"/>
</g>
<!-- \\yrmcds\\Client -->
<g id="node3" class="node"><title>\\yrmcds\\Client</title>
<polygon fill="none" stroke="black" points="423.5,-168 366.5,-168 366.5,-132 423.5,-132 423.5,-168"/>
<text text-anchor="middle" x="395" y="-147.2" font-family="Courier,monospace" font-size="11.00">Client</text>
</g>
<!-- \\yrmcds\\Error -->
<g id="node4" class="node"><title>\\yrmcds\\Error</title>
<polygon fill="none" stroke="black" points="422,-276 368,-276 368,-240 422,-240 422,-276"/>
<text text-anchor="middle" x="395" y="-255.2" font-family="Courier,monospace" font-size="11.00">Error</text>
</g>
<!-- \\yrmcds\\Error&#45;&gt;\\RuntimeException -->
<g id="edge3" class="edge"><title>\\yrmcds\\Error&#45;&gt;\\RuntimeException</title>
<path fill="none" stroke="black" d="M367.821,-255.312C335.245,-251.968 277.783,-246.069 227.62,-240.919"/>
<polygon fill="none" stroke="black" points="227.672,-237.406 217.366,-239.867 226.957,-244.37 227.672,-237.406"/>
</g>
<!-- \\yrmcds\\Response -->
<g id="node5" class="node"><title>\\yrmcds\\Response</title>
<polygon fill="none" stroke="black" points="430.5,-60 359.5,-60 359.5,-24 430.5,-24 430.5,-60"/>
<text text-anchor="middle" x="395" y="-39.2" font-family="Courier,monospace" font-size="11.00">Response</text>
</g>
</g>
</svg>
