<?xml version="1.0" encoding="UTF-8" standalone="no"?>
<!DOCTYPE svg PUBLIC "-//W3C//DTD SVG 1.1//EN"
 "http://www.w3.org/Graphics/SVG/1.1/DTD/svg11.dtd">
<!-- Generated by graphviz version 2.26.3 (20100126.1600)
 -->
<!-- Title: G Pages: 1 -->
<svg width="482pt" height="348pt"
 viewBox="0.00 0.00 482.00 348.00" xmlns="http://www.w3.org/2000/svg" xmlns:xlink="http://www.w3.org/1999/xlink">
<g id="graph1" class="graph" transform="scale(1 1) rotate(0) translate(4 344)">
<title>G</title>
<polygon fill="white" stroke="white" points="-4,5 -4,-344 479,-344 479,5 -4,5"/>
<g id="graph2" class="cluster"><title>cluster_Global</title>
<polyline fill="none" stroke="gray" points="320,-8 454,-8 "/>
<path fill="none" stroke="gray" d="M454,-8C460,-8 466,-14 466,-20"/>
<polyline fill="none" stroke="gray" points="466,-20 466,-320 "/>
<path fill="none" stroke="gray" d="M466,-320C466,-326 460,-332 454,-332"/>
<polyline fill="none" stroke="gray" points="454,-332 320,-332 "/>
<path fill="none" stroke="gray" d="M320,-332C314,-332 308,-326 308,-320"/>
<polyline fill="none" stroke="gray" points="308,-320 308,-20 "/>
<path fill="none" stroke="gray" d="M308,-20C308,-14 314,-8 320,-8"/>
<text text-anchor="middle" x="387" y="-318.1" font-family="Times Roman,serif" font-size="11.00" fill="gray">\</text>
</g>
<g id="graph3" class="cluster"><title>cluster_\yrmcds</title>
<polyline fill="none" stroke="gray" points="328,-16 446,-16 "/>
<path fill="none" stroke="gray" d="M446,-16C452,-16 458,-22 458,-28"/>
<polyline fill="none" stroke="gray" points="458,-28 458,-292 "/>
<path fill="none" stroke="gray" d="M458,-292C458,-298 452,-304 446,-304"/>
<polyline fill="none" stroke="gray" points="446,-304 328,-304 "/>
<path fill="none" stroke="gray" d="M328,-304C322,-304 316,-298 316,-292"/>
<polyline fill="none" stroke="gray" points="316,-292 316,-28 "/>
<path fill="none" stroke="gray" d="M316,-28C316,-22 322,-16 328,-16"/>
<text text-anchor="middle" x="387" y="-290.1" font-family="Times Roman,serif" font-size="11.00" fill="gray">yrmcds</text>
</g>
<!-- \\yrmcds\\Client -->
<g id="node3" class="node"><title>\\yrmcds\\Client</title>
<polygon fill="none" stroke="black" points="415,-276 359,-276 359,-240 415,-240 415,-276"/>
<text text-anchor="middle" x="387" y="-255.1" font-family="Courier,monospace" font-size="11.00">Client</text>
</g>
<!-- \\yrmcds\\Error -->
<g id="node4" class="node"><title>\\yrmcds\\Error</title>
<polygon fill="none" stroke="black" points="414,-222 360,-222 360,-186 414,-186 414,-222"/>
<text text-anchor="middle" x="387" y="-201.1" font-family="Courier,monospace" font-size="11.00">Error</text>
</g>
<!-- \\RuntimeException -->
<g id="node9" class="node"><title>\\RuntimeException</title>
<ellipse fill="none" stroke="black" cx="126" cy="-150" rx="97.9398" ry="18"/>
<text text-anchor="middle" x="126" y="-145.4" font-family="Times Roman,serif" font-size="14.00" fill="gray">\RuntimeException</text>
</g>
<!-- \\yrmcds\\Error&#45;&gt;\\RuntimeException -->
<g id="edge4" class="edge"><title>\\yrmcds\\Error&#45;&gt;\\RuntimeException</title>
<path fill="none" stroke="black" d="M359.562,-198.323C322.306,-190.615 254.283,-176.541 201.219,-165.563"/>
<polygon fill="none" stroke="black" points="201.66,-162.08 191.158,-163.481 200.241,-168.934 201.66,-162.08"/>
</g>
<!-- \\yrmcds\\Response -->
<g id="node5" class="node"><title>\\yrmcds\\Response</title>
<polygon fill="none" stroke="black" points="422,-168 352,-168 352,-132 422,-132 422,-168"/>
<text text-anchor="middle" x="387" y="-147.1" font-family="Courier,monospace" font-size="11.00">Response</text>
</g>
<!-- \\yrmcds\\TimeoutException -->
<g id="node6" class="node"><title>\\yrmcds\\TimeoutException</title>
<polygon fill="none" stroke="black" points="449,-114 325,-114 325,-78 449,-78 449,-114"/>
<text text-anchor="middle" x="387" y="-93.1" font-family="Courier,monospace" font-size="11.00">TimeoutException</text>
</g>
<!-- \\yrmcds\\TimeoutException&#45;&gt;\\RuntimeException -->
<g id="edge6" class="edge"><title>\\yrmcds\\TimeoutException&#45;&gt;\\RuntimeException</title>
<path fill="none" stroke="black" d="M324.484,-108.934C287.521,-116.582 240.462,-126.318 201.444,-134.391"/>
<polygon fill="none" stroke="black" points="200.273,-131.059 191.189,-136.513 201.691,-137.914 200.273,-131.059"/>
</g>
<!-- \\yrmcds\\SessionHandler -->
<g id="node7" class="node"><title>\\yrmcds\\SessionHandler</title>
<polygon fill="none" stroke="black" points="442,-60 332,-60 332,-24 442,-24 442,-60"/>
<text text-anchor="middle" x="387" y="-39.1" font-family="Courier,monospace" font-size="11.00">SessionHandler</text>
</g>
<!-- \\SessionHandlerInterface -->
<g id="node12" class="node"><title>\\SessionHandlerInterface</title>
<ellipse fill="none" stroke="black" cx="126" cy="-42" rx="126.114" ry="18"/>
<text text-anchor="middle" x="126" y="-37.4" font-family="Times Roman,serif" font-size="14.00" fill="gray">\SessionHandlerInterface</text>
</g>
<!-- \\yrmcds\\SessionHandler&#45;&gt;\\SessionHandlerInterface -->
<g id="edge8" class="edge"><title>\\yrmcds\\SessionHandler&#45;&gt;\\SessionHandlerInterface</title>
<path fill="none" stroke="black" stroke-dasharray="1,5" d="M331.329,-42C310.868,-42 286.7,-42 262.262,-42"/>
<polygon fill="none" stroke="black" points="262.154,-38.5001 252.154,-42 262.154,-45.5001 262.154,-38.5001"/>
</g>
</g>
</svg>
